<svg xmlns="http://www.w3.org/2000/svg" viewBox="0 0 24 24" width="24" height="24" role="img" aria-label="Mastodon">
  <rect width="24" height="24" fill="#6364FF"/>
  <path fill="#fff" d="M18.9 8.1c0-3.2-2.1-4.1-2.1-4.1-1.1-.5-2.9-.7-4.8-.7s-3.7.2-4.8.7c0 0-2.1.9-2.1 4.1 0 .7 0 1.6.1 2.5.2 3.1.6 6.1 3.4 6.9 1.3.4 2.4.4 3.6.4 1.8-.1 2.8-.6 2.8-.6l-.1-1.3s-1.3.4-2.7.4c-1.4-.1-2.9-.2-3.1-1.9v-.6s1.4.3 3.1.4c1.1 0 2.1-.1 3.1-.2 2-.2 3.7-1.4 3.9-2.5.2-1.7.2-3.5.2-3.5zm-2.6 3.6h-1.6V7.8c0-.8-.4-1.3-1.1-1.3-.8 0-1.2.5-1.2 1.5v2.2h-1.6V8c0-1-.4-1.5-1.2-1.5-.7 0-1.1.5-1.1 1.3v3.9H6.9V7.7c0-.8.2-1.5.7-2 .5-.5 1.1-.8 1.8-.8.9 0 1.6.3 2 1l.5.8.5-.8c.5-.7 1.2-1 2-1 .8 0 1.4.3 1.9.8.5.5.7 1.2.7 2z"/>
</svg>
