<svg width="1200" height="675" viewBox="0 0 1200 675" fill="none" xmlns="http://www.w3.org/2000/svg" role="img" aria-label="Filterable catalog of connector tiles, live and coming soon, illustration">
  <defs>
    <radialGradient id="glowA" cx="0" cy="0" r="1" gradientUnits="userSpaceOnUse" gradientTransform="translate(250 150) rotate(40) scale(620 560)">
      <stop stop-color="#f59e0b" stop-opacity="0.55"/>
      <stop offset="1" stop-color="#f59e0b" stop-opacity="0"/>
    </radialGradient>
    <radialGradient id="glowB" cx="0" cy="0" r="1" gradientUnits="userSpaceOnUse" gradientTransform="translate(1000 600) rotate(-140) scale(640 560)">
      <stop stop-color="#d97706" stop-opacity="0.5"/>
      <stop offset="1" stop-color="#d97706" stop-opacity="0"/>
    </radialGradient>
    <linearGradient id="edge" x1="80" y1="140" x2="1120" y2="560" gradientUnits="userSpaceOnUse">
      <stop stop-color="#fbbf24"/>
      <stop offset="1" stop-color="#f59e0b"/>
    </linearGradient>
    <pattern id="grid" width="46" height="46" patternUnits="userSpaceOnUse">
      <path d="M46 0H0V46" fill="none" stroke="#ffffff" stroke-opacity="0.045" stroke-width="1"/>
    </pattern>
    <filter id="soft" x="-30%" y="-30%" width="160%" height="160%">
      <feGaussianBlur stdDeviation="7"/>
    </filter>
  </defs>

  <rect width="1200" height="675" fill="#08090d"/>
  <rect width="1200" height="675" fill="url(#grid)"/>
  <rect width="1200" height="675" fill="url(#glowA)"/>
  <rect width="1200" height="675" fill="url(#glowB)"/>

  <!-- wordmark -->
  <g opacity="0.85">
    <circle cx="1058" cy="59" r="6" fill="#fbbf24"/>
    <text x="1078" y="66" font-family="'JetBrains Mono', ui-monospace, SFMono-Regular, monospace" font-size="23" font-weight="700" letter-spacing="7" fill="#fdf3d8">NEXOW</text>
  </g>

  <!-- tag chip -->
  <g transform="translate(64 588)">
    <rect x="0" y="0" width="128" height="44" rx="22" fill="#f59e0b" fill-opacity="0.12" stroke="#f59e0b" stroke-opacity="0.35"/>
    <text x="22" y="29" font-family="'JetBrains Mono', ui-monospace, SFMono-Regular, monospace" font-size="22" fill="#fde68a">#catalog</text>
  </g>

  <!-- top hairline accent -->
  <rect x="64" y="106" width="150" height="3" rx="1.5" fill="url(#edge)"/>

  <g>
    <ellipse cx="600" cy="360" rx="360" ry="220" fill="#f59e0b" fill-opacity="0.06" filter="url(#soft)"/>

    <!-- search field -->
    <g>
      <rect x="240" y="158" width="440" height="56" rx="28" fill="#08090d" stroke="url(#edge)" stroke-width="2.5"/>
      <rect x="240" y="158" width="440" height="56" rx="28" fill="#f59e0b" fill-opacity="0.08"/>
      <circle cx="286" cy="186" r="13" fill="none" stroke="#fde68a" stroke-width="3.5"/>
      <path d="M296 196 l12 12" stroke="#fde68a" stroke-width="3.5" stroke-linecap="round"/>
      <rect x="324" y="180" width="188" height="12" rx="6" fill="#fde68a" fill-opacity="0.45"/>
    </g>

    <!-- category / facet chips -->
    <g>
      <rect x="700" y="166" width="96" height="40" rx="20" fill="#f59e0b" fill-opacity="0.22" stroke="#fbbf24" stroke-opacity="0.7" stroke-width="2"/>
      <rect x="722" y="181" width="52" height="10" rx="5" fill="#fde68a" fill-opacity="0.75"/>
      <rect x="812" y="166" width="80" height="40" rx="20" fill="#f59e0b" fill-opacity="0.07" stroke="#8a7b57" stroke-opacity="0.55" stroke-width="2"/>
      <rect x="832" y="181" width="40" height="10" rx="5" fill="#fde68a" fill-opacity="0.35"/>
      <rect x="908" y="166" width="52" height="40" rx="20" fill="#f59e0b" fill-opacity="0.07" stroke="#8a7b57" stroke-opacity="0.55" stroke-width="2"/>
      <rect x="924" y="181" width="20" height="10" rx="5" fill="#fde68a" fill-opacity="0.35"/>
    </g>

    <!-- catalog grid: solid tiles are live, dashed tiles are coming soon -->
    <!-- row 1 -->
    <g>
      <rect x="240" y="256" width="132" height="104" rx="22" fill="#08090d" stroke="url(#edge)" stroke-width="2.5"/>
      <rect x="240" y="256" width="132" height="104" rx="22" fill="#f59e0b" fill-opacity="0.12"/>
      <circle cx="282" cy="298" r="17" fill="#fde68a" fill-opacity="0.75"/>
      <rect x="266" y="328" width="80" height="10" rx="5" fill="#fde68a" fill-opacity="0.4"/>
      <circle cx="356" cy="272" r="6" fill="#fbbf24"/>
    </g>
    <g>
      <rect x="392" y="256" width="132" height="104" rx="22" fill="#08090d" stroke="#f59e0b" stroke-opacity="0.5" stroke-width="2"/>
      <rect x="392" y="256" width="132" height="104" rx="22" fill="#f59e0b" fill-opacity="0.08"/>
      <rect x="418" y="282" width="34" height="34" rx="10" fill="#fde68a" fill-opacity="0.6"/>
      <rect x="418" y="328" width="80" height="10" rx="5" fill="#fde68a" fill-opacity="0.32"/>
      <circle cx="508" cy="272" r="6" fill="#fbbf24"/>
    </g>
    <g>
      <rect x="544" y="256" width="132" height="104" rx="22" fill="#08090d" stroke="url(#edge)" stroke-width="2.5"/>
      <rect x="544" y="256" width="132" height="104" rx="22" fill="#f59e0b" fill-opacity="0.12"/>
      <path d="M570 312 l16 -20 14 14 18 -26 14 18" fill="none" stroke="#fde68a" stroke-width="4" stroke-linecap="round" stroke-linejoin="round"/>
      <rect x="570" y="328" width="80" height="10" rx="5" fill="#fde68a" fill-opacity="0.4"/>
      <circle cx="660" cy="272" r="6" fill="#fbbf24"/>
    </g>
    <g>
      <rect x="696" y="256" width="132" height="104" rx="22" fill="#08090d" stroke="#8a7b57" stroke-opacity="0.6" stroke-width="2" stroke-dasharray="7 7"/>
      <rect x="722" y="282" width="34" height="34" rx="17" fill="#8a7b57" fill-opacity="0.5"/>
      <rect x="722" y="328" width="80" height="10" rx="5" fill="#8a7b57" fill-opacity="0.5"/>
    </g>
    <g>
      <rect x="848" y="256" width="132" height="104" rx="22" fill="#08090d" stroke="#f59e0b" stroke-opacity="0.5" stroke-width="2"/>
      <rect x="848" y="256" width="132" height="104" rx="22" fill="#f59e0b" fill-opacity="0.08"/>
      <path d="M874 316 v-24 M890 316 v-36 M906 316 v-16 M922 316 v-28" stroke="#fde68a" stroke-opacity="0.7" stroke-width="6" stroke-linecap="round"/>
      <rect x="874" y="328" width="80" height="10" rx="5" fill="#fde68a" fill-opacity="0.32"/>
      <circle cx="964" cy="272" r="6" fill="#fbbf24"/>
    </g>

    <!-- row 2 -->
    <g>
      <rect x="240" y="380" width="132" height="104" rx="22" fill="#08090d" stroke="#f59e0b" stroke-opacity="0.5" stroke-width="2"/>
      <rect x="240" y="380" width="132" height="104" rx="22" fill="#f59e0b" fill-opacity="0.08"/>
      <ellipse cx="290" cy="410" rx="24" ry="9" fill="none" stroke="#fde68a" stroke-opacity="0.7" stroke-width="3.5"/>
      <path d="M266 410 v22 a24 9 0 0 0 48 0 v-22" fill="none" stroke="#fde68a" stroke-opacity="0.7" stroke-width="3.5"/>
      <rect x="266" y="452" width="80" height="10" rx="5" fill="#fde68a" fill-opacity="0.32"/>
      <circle cx="356" cy="396" r="6" fill="#fbbf24"/>
    </g>
    <g>
      <rect x="392" y="380" width="132" height="104" rx="22" fill="#08090d" stroke="#8a7b57" stroke-opacity="0.6" stroke-width="2" stroke-dasharray="7 7"/>
      <rect x="418" y="406" width="34" height="34" rx="10" fill="#8a7b57" fill-opacity="0.5"/>
      <rect x="418" y="452" width="80" height="10" rx="5" fill="#8a7b57" fill-opacity="0.5"/>
    </g>
    <g>
      <rect x="544" y="380" width="132" height="104" rx="22" fill="#08090d" stroke="url(#edge)" stroke-width="2.5"/>
      <rect x="544" y="380" width="132" height="104" rx="22" fill="#f59e0b" fill-opacity="0.12"/>
      <path d="M594 400 l22 12 v24 l-22 12 -22 -12 v-24 z" fill="none" stroke="#fde68a" stroke-width="3.5" stroke-linejoin="round"/>
      <rect x="570" y="452" width="80" height="10" rx="5" fill="#fde68a" fill-opacity="0.4"/>
      <circle cx="660" cy="396" r="6" fill="#fbbf24"/>
    </g>
    <g>
      <rect x="696" y="380" width="132" height="104" rx="22" fill="#08090d" stroke="#f59e0b" stroke-opacity="0.5" stroke-width="2"/>
      <rect x="696" y="380" width="132" height="104" rx="22" fill="#f59e0b" fill-opacity="0.08"/>
      <circle cx="746" cy="423" r="18" fill="none" stroke="#fde68a" stroke-opacity="0.7" stroke-width="3.5"/>
      <path d="M728 423 h36 M746 405 a26 18 0 0 1 0 36 a26 18 0 0 1 0 -36" fill="none" stroke="#fde68a" stroke-opacity="0.7" stroke-width="3"/>
      <rect x="722" y="452" width="80" height="10" rx="5" fill="#fde68a" fill-opacity="0.32"/>
      <circle cx="812" cy="396" r="6" fill="#fbbf24"/>
    </g>
    <g>
      <rect x="848" y="380" width="132" height="104" rx="22" fill="#08090d" stroke="#8a7b57" stroke-opacity="0.6" stroke-width="2" stroke-dasharray="7 7"/>
      <path d="M878 424 h34 M898 410 l16 14 -16 14" fill="none" stroke="#8a7b57" stroke-opacity="0.75" stroke-width="4" stroke-linecap="round" stroke-linejoin="round"/>
      <rect x="874" y="452" width="80" height="10" rx="5" fill="#8a7b57" fill-opacity="0.5"/>
    </g>

    <!-- live / soon legend -->
    <g transform="translate(240 512)">
      <circle cx="10" cy="14" r="7" fill="#fbbf24"/>
      <rect x="30" y="8" width="86" height="12" rx="6" fill="#fde68a" fill-opacity="0.45"/>
      <circle cx="176" cy="14" r="7" fill="none" stroke="#8a7b57" stroke-width="3"/>
      <rect x="196" y="8" width="66" height="12" rx="6" fill="#8a7b57" fill-opacity="0.5"/>
    </g>
  </g>
</svg>
